%ASAXBY*%
%FSLAX23Y23*%
%MOIN*%
%OFA0B0*%
%SFA1.0B1.0*%
%ADD10C,0.049370*%
%ADD11C,0.088000*%
%ADD12R,0.060000X0.035000*%
%ADD13R,0.072992X0.065118*%
%ADD14R,0.035000X0.060000*%
%ADD15R,0.098000X0.058000*%
%ADD16R,0.096614X0.151732*%
%ADD17R,0.069055X0.065118*%
%ADD18R,0.057244X0.041496*%
%ADD19C,0.018000*%
%LNMASK0*%
G90*
G70*
G54D10*
X488Y558D03*
X488Y703D03*
X566Y1849D03*
X290Y1849D03*
G54D11*
X271Y1071D03*
X371Y1071D03*
X471Y1071D03*
X571Y1071D03*
X271Y1071D03*
X371Y1071D03*
X471Y1071D03*
X571Y1071D03*
X571Y1171D03*
X471Y1171D03*
X371Y1171D03*
X271Y1171D03*
G54D10*
X171Y925D03*
X141Y612D03*
X171Y689D03*
X683Y374D03*
X683Y532D03*
X683Y925D03*
X171Y847D03*
G54D12*
X278Y664D03*
X278Y624D03*
G54D13*
X782Y817D03*
X782Y927D03*
X412Y545D03*
X412Y656D03*
G54D14*
X773Y374D03*
X738Y374D03*
G54D15*
X290Y773D03*
X290Y864D03*
X290Y955D03*
G54D16*
X534Y864D03*
G54D17*
X141Y534D03*
X141Y453D03*
X105Y850D03*
X105Y770D03*
G54D18*
X683Y835D03*
X683Y764D03*
G54D17*
X525Y455D03*
X525Y374D03*
X612Y612D03*
X612Y532D03*
X278Y536D03*
X278Y455D03*
G54D19*
X278Y659D02*
X278Y629D01*
G04 End of Mask0*
M02*