%ASAXBY*%
%FSLAX23Y23*%
%MOIN*%
%OFA0B0*%
%SFA1.0B1.0*%
%ADD10C,0.075000*%
%ADD11C,0.039370*%
%ADD12C,0.078000*%
%ADD13R,0.050000X0.025000*%
%ADD14R,0.062992X0.055118*%
%ADD15R,0.025000X0.050000*%
%ADD16R,0.088000X0.048000*%
%ADD17R,0.086614X0.141732*%
%ADD18R,0.059055X0.055118*%
%ADD19R,0.047244X0.031496*%
%ADD20C,0.008000*%
%ADD21C,0.016000*%
%ADD22C,0.024000*%
%ADD23R,0.001000X0.001000*%
%LNCOPPER0*%
G90*
G70*
G54D10*
X350Y1334D03*
X697Y666D03*
G54D11*
X488Y558D03*
X488Y703D03*
X566Y1849D03*
X290Y1849D03*
G54D12*
X271Y1071D03*
X371Y1071D03*
X471Y1071D03*
X571Y1071D03*
X271Y1071D03*
X371Y1071D03*
X471Y1071D03*
X571Y1071D03*
X571Y1171D03*
X471Y1171D03*
X371Y1171D03*
X271Y1171D03*
G54D11*
X171Y925D03*
X141Y612D03*
X171Y689D03*
X683Y374D03*
X683Y532D03*
X683Y925D03*
X171Y847D03*
G54D13*
X278Y664D03*
X278Y624D03*
G54D14*
X782Y817D03*
X782Y927D03*
X412Y545D03*
X412Y656D03*
G54D15*
X773Y374D03*
X738Y374D03*
G54D16*
X290Y773D03*
X290Y864D03*
X290Y955D03*
G54D17*
X534Y864D03*
G54D18*
X141Y534D03*
X141Y453D03*
X105Y850D03*
X105Y770D03*
G54D19*
X683Y835D03*
X683Y764D03*
G54D18*
X525Y455D03*
X525Y374D03*
X612Y612D03*
X612Y532D03*
X278Y536D03*
X278Y455D03*
G54D20*
X278Y659D02*
X278Y629D01*
G54D21*
D02*
X828Y817D02*
X808Y817D01*
D02*
X829Y1270D02*
X828Y817D01*
D02*
X563Y1269D02*
X829Y1270D01*
G54D22*
D02*
X782Y795D02*
X774Y394D01*
D02*
X773Y309D02*
X31Y309D01*
D02*
X31Y309D02*
X31Y925D01*
D02*
X31Y925D02*
X152Y925D01*
D02*
X773Y355D02*
X773Y309D01*
G54D21*
D02*
X488Y690D02*
X488Y571D01*
G54D22*
D02*
X141Y556D02*
X141Y593D01*
D02*
X254Y454D02*
X165Y453D01*
D02*
X180Y1071D02*
X180Y1269D01*
D02*
X180Y1269D02*
X563Y1269D01*
D02*
X563Y1269D02*
X566Y1830D01*
D02*
X241Y1071D02*
X180Y1071D01*
D02*
X89Y1052D02*
X252Y974D01*
D02*
X89Y1291D02*
X89Y1052D01*
D02*
X136Y1330D02*
X89Y1291D01*
D02*
X236Y1330D02*
X136Y1330D01*
D02*
X290Y1380D02*
X236Y1330D01*
D02*
X290Y1830D02*
X290Y1380D01*
D02*
X369Y944D02*
X412Y912D01*
D02*
X412Y912D02*
X412Y678D01*
D02*
X329Y950D02*
X369Y944D01*
D02*
X787Y1136D02*
X739Y1171D01*
D02*
X739Y1171D02*
X601Y1171D01*
D02*
X783Y949D02*
X787Y1136D01*
D02*
X171Y664D02*
X259Y664D01*
D02*
X171Y670D02*
X171Y664D01*
D02*
X278Y558D02*
X278Y617D01*
D02*
X702Y926D02*
X756Y927D01*
D02*
X702Y374D02*
X731Y374D01*
D02*
X534Y925D02*
X534Y864D01*
D02*
X664Y925D02*
X534Y925D01*
D02*
X152Y848D02*
X129Y849D01*
D02*
X526Y591D02*
X525Y477D01*
D02*
X546Y610D02*
X526Y591D01*
D02*
X588Y612D02*
X546Y610D01*
D02*
X683Y906D02*
X683Y845D01*
D02*
X664Y532D02*
X636Y532D01*
D02*
X664Y374D02*
X549Y374D01*
G36*
X312Y1402D02*
X312Y1372D01*
X310Y1372D01*
X310Y1368D01*
X308Y1368D01*
X308Y1366D01*
X306Y1366D01*
X306Y1364D01*
X304Y1364D01*
X304Y1362D01*
X302Y1362D01*
X302Y1360D01*
X300Y1360D01*
X300Y1358D01*
X298Y1358D01*
X298Y1356D01*
X296Y1356D01*
X296Y1354D01*
X294Y1354D01*
X294Y1352D01*
X292Y1352D01*
X292Y1350D01*
X290Y1350D01*
X290Y1348D01*
X288Y1348D01*
X288Y1346D01*
X286Y1346D01*
X286Y1344D01*
X284Y1344D01*
X284Y1342D01*
X280Y1342D01*
X280Y1340D01*
X278Y1340D01*
X278Y1338D01*
X276Y1338D01*
X276Y1336D01*
X274Y1336D01*
X274Y1334D01*
X272Y1334D01*
X272Y1332D01*
X270Y1332D01*
X270Y1330D01*
X268Y1330D01*
X268Y1328D01*
X266Y1328D01*
X266Y1326D01*
X264Y1326D01*
X264Y1324D01*
X262Y1324D01*
X262Y1322D01*
X260Y1322D01*
X260Y1320D01*
X258Y1320D01*
X258Y1318D01*
X254Y1318D01*
X254Y1316D01*
X252Y1316D01*
X252Y1314D01*
X250Y1314D01*
X250Y1312D01*
X248Y1312D01*
X248Y1310D01*
X244Y1310D01*
X244Y1308D01*
X144Y1308D01*
X144Y1306D01*
X140Y1306D01*
X140Y1304D01*
X138Y1304D01*
X138Y1302D01*
X136Y1302D01*
X136Y1300D01*
X134Y1300D01*
X134Y1298D01*
X132Y1298D01*
X132Y1296D01*
X128Y1296D01*
X128Y1294D01*
X126Y1294D01*
X126Y1292D01*
X124Y1292D01*
X124Y1290D01*
X122Y1290D01*
X122Y1288D01*
X118Y1288D01*
X118Y1286D01*
X116Y1286D01*
X116Y1284D01*
X114Y1284D01*
X114Y1282D01*
X112Y1282D01*
X112Y1280D01*
X110Y1280D01*
X110Y1220D01*
X582Y1220D01*
X582Y1218D01*
X588Y1218D01*
X588Y1216D01*
X592Y1216D01*
X592Y1214D01*
X596Y1214D01*
X596Y1212D01*
X600Y1212D01*
X600Y1210D01*
X602Y1210D01*
X602Y1208D01*
X604Y1208D01*
X604Y1206D01*
X606Y1206D01*
X606Y1204D01*
X608Y1204D01*
X608Y1202D01*
X610Y1202D01*
X610Y1200D01*
X612Y1200D01*
X612Y1196D01*
X614Y1196D01*
X614Y1194D01*
X740Y1194D01*
X740Y1192D01*
X748Y1192D01*
X748Y1190D01*
X752Y1190D01*
X752Y1188D01*
X754Y1188D01*
X754Y1186D01*
X758Y1186D01*
X758Y1184D01*
X760Y1184D01*
X760Y1182D01*
X762Y1182D01*
X762Y1180D01*
X766Y1180D01*
X766Y1178D01*
X768Y1178D01*
X768Y1176D01*
X770Y1176D01*
X770Y1174D01*
X774Y1174D01*
X774Y1172D01*
X776Y1172D01*
X776Y1170D01*
X780Y1170D01*
X780Y1168D01*
X782Y1168D01*
X782Y1166D01*
X784Y1166D01*
X784Y1164D01*
X788Y1164D01*
X788Y1162D01*
X790Y1162D01*
X790Y1160D01*
X792Y1160D01*
X792Y1158D01*
X814Y1158D01*
X814Y1354D01*
X812Y1354D01*
X812Y1368D01*
X810Y1368D01*
X810Y1374D01*
X808Y1374D01*
X808Y1378D01*
X806Y1378D01*
X806Y1380D01*
X804Y1380D01*
X804Y1384D01*
X802Y1384D01*
X802Y1386D01*
X800Y1386D01*
X800Y1388D01*
X798Y1388D01*
X798Y1390D01*
X796Y1390D01*
X796Y1392D01*
X794Y1392D01*
X794Y1394D01*
X792Y1394D01*
X792Y1396D01*
X788Y1396D01*
X788Y1398D01*
X784Y1398D01*
X784Y1400D01*
X778Y1400D01*
X778Y1402D01*
X312Y1402D01*
G37*
D02*
G36*
X110Y1220D02*
X110Y1066D01*
X112Y1066D01*
X112Y1064D01*
X116Y1064D01*
X116Y1062D01*
X120Y1062D01*
X120Y1060D01*
X124Y1060D01*
X124Y1058D01*
X128Y1058D01*
X128Y1056D01*
X132Y1056D01*
X132Y1054D01*
X136Y1054D01*
X136Y1052D01*
X140Y1052D01*
X140Y1050D01*
X146Y1050D01*
X146Y1048D01*
X150Y1048D01*
X150Y1046D01*
X154Y1046D01*
X154Y1044D01*
X158Y1044D01*
X158Y1042D01*
X162Y1042D01*
X162Y1040D01*
X166Y1040D01*
X166Y1038D01*
X170Y1038D01*
X170Y1036D01*
X174Y1036D01*
X174Y1034D01*
X178Y1034D01*
X178Y1032D01*
X182Y1032D01*
X182Y1030D01*
X186Y1030D01*
X186Y1028D01*
X190Y1028D01*
X190Y1026D01*
X196Y1026D01*
X196Y1024D01*
X200Y1024D01*
X200Y1022D01*
X262Y1022D01*
X262Y1024D01*
X256Y1024D01*
X256Y1026D01*
X250Y1026D01*
X250Y1028D01*
X246Y1028D01*
X246Y1030D01*
X244Y1030D01*
X244Y1032D01*
X240Y1032D01*
X240Y1034D01*
X238Y1034D01*
X238Y1036D01*
X236Y1036D01*
X236Y1038D01*
X234Y1038D01*
X234Y1042D01*
X232Y1042D01*
X232Y1044D01*
X230Y1044D01*
X230Y1048D01*
X228Y1048D01*
X228Y1050D01*
X226Y1050D01*
X226Y1056D01*
X224Y1056D01*
X224Y1064D01*
X222Y1064D01*
X222Y1078D01*
X224Y1078D01*
X224Y1086D01*
X226Y1086D01*
X226Y1092D01*
X228Y1092D01*
X228Y1096D01*
X230Y1096D01*
X230Y1098D01*
X232Y1098D01*
X232Y1102D01*
X234Y1102D01*
X234Y1104D01*
X236Y1104D01*
X236Y1106D01*
X238Y1106D01*
X238Y1108D01*
X240Y1108D01*
X240Y1110D01*
X244Y1110D01*
X244Y1132D01*
X240Y1132D01*
X240Y1134D01*
X238Y1134D01*
X238Y1136D01*
X236Y1136D01*
X236Y1138D01*
X234Y1138D01*
X234Y1142D01*
X232Y1142D01*
X232Y1144D01*
X230Y1144D01*
X230Y1148D01*
X228Y1148D01*
X228Y1150D01*
X226Y1150D01*
X226Y1156D01*
X224Y1156D01*
X224Y1164D01*
X222Y1164D01*
X222Y1178D01*
X224Y1178D01*
X224Y1186D01*
X226Y1186D01*
X226Y1192D01*
X228Y1192D01*
X228Y1196D01*
X230Y1196D01*
X230Y1198D01*
X232Y1198D01*
X232Y1202D01*
X234Y1202D01*
X234Y1204D01*
X236Y1204D01*
X236Y1206D01*
X238Y1206D01*
X238Y1208D01*
X240Y1208D01*
X240Y1210D01*
X244Y1210D01*
X244Y1212D01*
X246Y1212D01*
X246Y1214D01*
X250Y1214D01*
X250Y1216D01*
X254Y1216D01*
X254Y1218D01*
X262Y1218D01*
X262Y1220D01*
X110Y1220D01*
G37*
D02*
G36*
X282Y1220D02*
X282Y1218D01*
X288Y1218D01*
X288Y1216D01*
X292Y1216D01*
X292Y1214D01*
X296Y1214D01*
X296Y1212D01*
X300Y1212D01*
X300Y1210D01*
X302Y1210D01*
X302Y1208D01*
X304Y1208D01*
X304Y1206D01*
X306Y1206D01*
X306Y1204D01*
X308Y1204D01*
X308Y1202D01*
X310Y1202D01*
X310Y1200D01*
X312Y1200D01*
X312Y1198D01*
X332Y1198D01*
X332Y1202D01*
X334Y1202D01*
X334Y1204D01*
X336Y1204D01*
X336Y1206D01*
X338Y1206D01*
X338Y1208D01*
X340Y1208D01*
X340Y1210D01*
X344Y1210D01*
X344Y1212D01*
X346Y1212D01*
X346Y1214D01*
X350Y1214D01*
X350Y1216D01*
X354Y1216D01*
X354Y1218D01*
X362Y1218D01*
X362Y1220D01*
X282Y1220D01*
G37*
D02*
G36*
X382Y1220D02*
X382Y1218D01*
X388Y1218D01*
X388Y1216D01*
X392Y1216D01*
X392Y1214D01*
X396Y1214D01*
X396Y1212D01*
X400Y1212D01*
X400Y1210D01*
X402Y1210D01*
X402Y1208D01*
X404Y1208D01*
X404Y1206D01*
X406Y1206D01*
X406Y1204D01*
X408Y1204D01*
X408Y1202D01*
X410Y1202D01*
X410Y1200D01*
X412Y1200D01*
X412Y1198D01*
X432Y1198D01*
X432Y1202D01*
X434Y1202D01*
X434Y1204D01*
X436Y1204D01*
X436Y1206D01*
X438Y1206D01*
X438Y1208D01*
X440Y1208D01*
X440Y1210D01*
X444Y1210D01*
X444Y1212D01*
X446Y1212D01*
X446Y1214D01*
X450Y1214D01*
X450Y1216D01*
X454Y1216D01*
X454Y1218D01*
X462Y1218D01*
X462Y1220D01*
X382Y1220D01*
G37*
D02*
G36*
X482Y1220D02*
X482Y1218D01*
X488Y1218D01*
X488Y1216D01*
X492Y1216D01*
X492Y1214D01*
X496Y1214D01*
X496Y1212D01*
X500Y1212D01*
X500Y1210D01*
X502Y1210D01*
X502Y1208D01*
X504Y1208D01*
X504Y1206D01*
X506Y1206D01*
X506Y1204D01*
X508Y1204D01*
X508Y1202D01*
X510Y1202D01*
X510Y1200D01*
X512Y1200D01*
X512Y1198D01*
X532Y1198D01*
X532Y1202D01*
X534Y1202D01*
X534Y1204D01*
X536Y1204D01*
X536Y1206D01*
X538Y1206D01*
X538Y1208D01*
X540Y1208D01*
X540Y1210D01*
X544Y1210D01*
X544Y1212D01*
X546Y1212D01*
X546Y1214D01*
X550Y1214D01*
X550Y1216D01*
X554Y1216D01*
X554Y1218D01*
X562Y1218D01*
X562Y1220D01*
X482Y1220D01*
G37*
D02*
G36*
X614Y1150D02*
X614Y1146D01*
X612Y1146D01*
X612Y1142D01*
X610Y1142D01*
X610Y1140D01*
X608Y1140D01*
X608Y1138D01*
X606Y1138D01*
X606Y1136D01*
X604Y1136D01*
X604Y1134D01*
X602Y1134D01*
X602Y1132D01*
X600Y1132D01*
X600Y1110D01*
X602Y1110D01*
X602Y1108D01*
X604Y1108D01*
X604Y1106D01*
X606Y1106D01*
X606Y1104D01*
X608Y1104D01*
X608Y1102D01*
X610Y1102D01*
X610Y1100D01*
X612Y1100D01*
X612Y1096D01*
X614Y1096D01*
X614Y1092D01*
X616Y1092D01*
X616Y1088D01*
X618Y1088D01*
X618Y1082D01*
X620Y1082D01*
X620Y1060D01*
X618Y1060D01*
X618Y1054D01*
X616Y1054D01*
X616Y1050D01*
X614Y1050D01*
X614Y1046D01*
X612Y1046D01*
X612Y1042D01*
X610Y1042D01*
X610Y1040D01*
X608Y1040D01*
X608Y1038D01*
X606Y1038D01*
X606Y1036D01*
X604Y1036D01*
X604Y1034D01*
X602Y1034D01*
X602Y1032D01*
X600Y1032D01*
X600Y1030D01*
X596Y1030D01*
X596Y1028D01*
X592Y1028D01*
X592Y1026D01*
X588Y1026D01*
X588Y1024D01*
X580Y1024D01*
X580Y1022D01*
X762Y1022D01*
X762Y1056D01*
X764Y1056D01*
X764Y1126D01*
X762Y1126D01*
X762Y1128D01*
X760Y1128D01*
X760Y1130D01*
X756Y1130D01*
X756Y1132D01*
X754Y1132D01*
X754Y1134D01*
X752Y1134D01*
X752Y1136D01*
X748Y1136D01*
X748Y1138D01*
X746Y1138D01*
X746Y1140D01*
X742Y1140D01*
X742Y1142D01*
X740Y1142D01*
X740Y1144D01*
X738Y1144D01*
X738Y1146D01*
X734Y1146D01*
X734Y1148D01*
X732Y1148D01*
X732Y1150D01*
X614Y1150D01*
G37*
D02*
G36*
X312Y1044D02*
X312Y1042D01*
X310Y1042D01*
X310Y1040D01*
X308Y1040D01*
X308Y1038D01*
X306Y1038D01*
X306Y1036D01*
X304Y1036D01*
X304Y1034D01*
X302Y1034D01*
X302Y1032D01*
X300Y1032D01*
X300Y1030D01*
X296Y1030D01*
X296Y1028D01*
X292Y1028D01*
X292Y1026D01*
X288Y1026D01*
X288Y1024D01*
X280Y1024D01*
X280Y1022D01*
X362Y1022D01*
X362Y1024D01*
X356Y1024D01*
X356Y1026D01*
X350Y1026D01*
X350Y1028D01*
X346Y1028D01*
X346Y1030D01*
X344Y1030D01*
X344Y1032D01*
X340Y1032D01*
X340Y1034D01*
X338Y1034D01*
X338Y1036D01*
X336Y1036D01*
X336Y1038D01*
X334Y1038D01*
X334Y1042D01*
X332Y1042D01*
X332Y1044D01*
X312Y1044D01*
G37*
D02*
G36*
X412Y1044D02*
X412Y1042D01*
X410Y1042D01*
X410Y1040D01*
X408Y1040D01*
X408Y1038D01*
X406Y1038D01*
X406Y1036D01*
X404Y1036D01*
X404Y1034D01*
X402Y1034D01*
X402Y1032D01*
X400Y1032D01*
X400Y1030D01*
X396Y1030D01*
X396Y1028D01*
X392Y1028D01*
X392Y1026D01*
X388Y1026D01*
X388Y1024D01*
X380Y1024D01*
X380Y1022D01*
X462Y1022D01*
X462Y1024D01*
X456Y1024D01*
X456Y1026D01*
X450Y1026D01*
X450Y1028D01*
X446Y1028D01*
X446Y1030D01*
X444Y1030D01*
X444Y1032D01*
X440Y1032D01*
X440Y1034D01*
X438Y1034D01*
X438Y1036D01*
X436Y1036D01*
X436Y1038D01*
X434Y1038D01*
X434Y1042D01*
X432Y1042D01*
X432Y1044D01*
X412Y1044D01*
G37*
D02*
G36*
X512Y1044D02*
X512Y1042D01*
X510Y1042D01*
X510Y1040D01*
X508Y1040D01*
X508Y1038D01*
X506Y1038D01*
X506Y1036D01*
X504Y1036D01*
X504Y1034D01*
X502Y1034D01*
X502Y1032D01*
X500Y1032D01*
X500Y1030D01*
X496Y1030D01*
X496Y1028D01*
X492Y1028D01*
X492Y1026D01*
X488Y1026D01*
X488Y1024D01*
X480Y1024D01*
X480Y1022D01*
X562Y1022D01*
X562Y1024D01*
X556Y1024D01*
X556Y1026D01*
X550Y1026D01*
X550Y1028D01*
X546Y1028D01*
X546Y1030D01*
X544Y1030D01*
X544Y1032D01*
X540Y1032D01*
X540Y1034D01*
X538Y1034D01*
X538Y1036D01*
X536Y1036D01*
X536Y1038D01*
X534Y1038D01*
X534Y1042D01*
X532Y1042D01*
X532Y1044D01*
X512Y1044D01*
G37*
D02*
G36*
X204Y1022D02*
X204Y1020D01*
X762Y1020D01*
X762Y1022D01*
X204Y1022D01*
G37*
D02*
G36*
X204Y1022D02*
X204Y1020D01*
X762Y1020D01*
X762Y1022D01*
X204Y1022D01*
G37*
D02*
G36*
X204Y1022D02*
X204Y1020D01*
X762Y1020D01*
X762Y1022D01*
X204Y1022D01*
G37*
D02*
G36*
X204Y1022D02*
X204Y1020D01*
X762Y1020D01*
X762Y1022D01*
X204Y1022D01*
G37*
D02*
G36*
X204Y1022D02*
X204Y1020D01*
X762Y1020D01*
X762Y1022D01*
X204Y1022D01*
G37*
D02*
G36*
X208Y1020D02*
X208Y1018D01*
X212Y1018D01*
X212Y1016D01*
X216Y1016D01*
X216Y1014D01*
X220Y1014D01*
X220Y1012D01*
X224Y1012D01*
X224Y1010D01*
X228Y1010D01*
X228Y1008D01*
X232Y1008D01*
X232Y1006D01*
X236Y1006D01*
X236Y1004D01*
X242Y1004D01*
X242Y1002D01*
X246Y1002D01*
X246Y1000D01*
X250Y1000D01*
X250Y998D01*
X254Y998D01*
X254Y996D01*
X258Y996D01*
X258Y994D01*
X262Y994D01*
X262Y992D01*
X264Y992D01*
X264Y990D01*
X344Y990D01*
X344Y970D01*
X346Y970D01*
X346Y968D01*
X360Y968D01*
X360Y966D01*
X372Y966D01*
X372Y964D01*
X378Y964D01*
X378Y962D01*
X382Y962D01*
X382Y960D01*
X384Y960D01*
X384Y958D01*
X388Y958D01*
X388Y956D01*
X390Y956D01*
X390Y954D01*
X692Y954D01*
X692Y952D01*
X696Y952D01*
X696Y950D01*
X700Y950D01*
X700Y948D01*
X740Y948D01*
X740Y964D01*
X762Y964D01*
X762Y1020D01*
X208Y1020D01*
G37*
D02*
G36*
X394Y954D02*
X394Y952D01*
X396Y952D01*
X396Y950D01*
X398Y950D01*
X398Y948D01*
X402Y948D01*
X402Y946D01*
X404Y946D01*
X404Y944D01*
X406Y944D01*
X406Y942D01*
X410Y942D01*
X410Y940D01*
X412Y940D01*
X412Y938D01*
X414Y938D01*
X414Y936D01*
X418Y936D01*
X418Y934D01*
X420Y934D01*
X420Y932D01*
X422Y932D01*
X422Y930D01*
X426Y930D01*
X426Y928D01*
X428Y928D01*
X428Y926D01*
X430Y926D01*
X430Y922D01*
X432Y922D01*
X432Y918D01*
X434Y918D01*
X434Y732D01*
X498Y732D01*
X498Y730D01*
X502Y730D01*
X502Y728D01*
X506Y728D01*
X506Y726D01*
X508Y726D01*
X508Y724D01*
X510Y724D01*
X510Y722D01*
X512Y722D01*
X512Y718D01*
X514Y718D01*
X514Y714D01*
X516Y714D01*
X516Y706D01*
X518Y706D01*
X518Y700D01*
X516Y700D01*
X516Y692D01*
X514Y692D01*
X514Y688D01*
X512Y688D01*
X512Y686D01*
X510Y686D01*
X510Y682D01*
X508Y682D01*
X508Y680D01*
X506Y680D01*
X506Y620D01*
X526Y620D01*
X526Y622D01*
X528Y622D01*
X528Y624D01*
X530Y624D01*
X530Y626D01*
X532Y626D01*
X532Y628D01*
X534Y628D01*
X534Y630D01*
X538Y630D01*
X538Y632D01*
X572Y632D01*
X572Y650D01*
X594Y650D01*
X594Y674D01*
X592Y674D01*
X592Y680D01*
X590Y680D01*
X590Y686D01*
X588Y686D01*
X588Y692D01*
X586Y692D01*
X586Y700D01*
X584Y700D01*
X584Y706D01*
X582Y706D01*
X582Y712D01*
X580Y712D01*
X580Y718D01*
X578Y718D01*
X578Y726D01*
X576Y726D01*
X576Y732D01*
X574Y732D01*
X574Y738D01*
X572Y738D01*
X572Y744D01*
X570Y744D01*
X570Y752D01*
X568Y752D01*
X568Y758D01*
X566Y758D01*
X566Y764D01*
X564Y764D01*
X564Y770D01*
X562Y770D01*
X562Y778D01*
X560Y778D01*
X560Y784D01*
X480Y784D01*
X480Y944D01*
X524Y944D01*
X524Y946D01*
X532Y946D01*
X532Y948D01*
X666Y948D01*
X666Y950D01*
X668Y950D01*
X668Y952D01*
X672Y952D01*
X672Y954D01*
X394Y954D01*
G37*
D02*
G36*
X434Y732D02*
X434Y692D01*
X460Y692D01*
X460Y696D01*
X458Y696D01*
X458Y710D01*
X460Y710D01*
X460Y716D01*
X462Y716D01*
X462Y720D01*
X464Y720D01*
X464Y722D01*
X466Y722D01*
X466Y724D01*
X468Y724D01*
X468Y726D01*
X470Y726D01*
X470Y728D01*
X474Y728D01*
X474Y730D01*
X478Y730D01*
X478Y732D01*
X434Y732D01*
G37*
D02*
G36*
X76Y1402D02*
X76Y1400D01*
X72Y1400D01*
X72Y1398D01*
X68Y1398D01*
X68Y1396D01*
X64Y1396D01*
X64Y1394D01*
X62Y1394D01*
X62Y1392D01*
X60Y1392D01*
X60Y1390D01*
X56Y1390D01*
X56Y1388D01*
X54Y1388D01*
X54Y1384D01*
X52Y1384D01*
X52Y1382D01*
X50Y1382D01*
X50Y1378D01*
X48Y1378D01*
X48Y1376D01*
X46Y1376D01*
X46Y1370D01*
X44Y1370D01*
X44Y1364D01*
X42Y1364D01*
X42Y954D01*
X180Y954D01*
X180Y952D01*
X186Y952D01*
X186Y950D01*
X188Y950D01*
X188Y948D01*
X190Y948D01*
X190Y946D01*
X192Y946D01*
X192Y944D01*
X194Y944D01*
X194Y942D01*
X196Y942D01*
X196Y940D01*
X198Y940D01*
X198Y934D01*
X200Y934D01*
X200Y916D01*
X198Y916D01*
X198Y912D01*
X196Y912D01*
X196Y908D01*
X194Y908D01*
X194Y906D01*
X192Y906D01*
X192Y904D01*
X190Y904D01*
X190Y902D01*
X188Y902D01*
X188Y900D01*
X184Y900D01*
X184Y898D01*
X344Y898D01*
X344Y830D01*
X390Y830D01*
X390Y902D01*
X386Y902D01*
X386Y904D01*
X384Y904D01*
X384Y906D01*
X382Y906D01*
X382Y908D01*
X378Y908D01*
X378Y910D01*
X376Y910D01*
X376Y912D01*
X374Y912D01*
X374Y914D01*
X370Y914D01*
X370Y916D01*
X368Y916D01*
X368Y918D01*
X366Y918D01*
X366Y920D01*
X238Y920D01*
X238Y922D01*
X236Y922D01*
X236Y958D01*
X232Y958D01*
X232Y960D01*
X226Y960D01*
X226Y962D01*
X222Y962D01*
X222Y964D01*
X218Y964D01*
X218Y966D01*
X214Y966D01*
X214Y968D01*
X210Y968D01*
X210Y970D01*
X206Y970D01*
X206Y972D01*
X202Y972D01*
X202Y974D01*
X198Y974D01*
X198Y976D01*
X194Y976D01*
X194Y978D01*
X190Y978D01*
X190Y980D01*
X186Y980D01*
X186Y982D01*
X180Y982D01*
X180Y984D01*
X176Y984D01*
X176Y986D01*
X172Y986D01*
X172Y988D01*
X168Y988D01*
X168Y990D01*
X164Y990D01*
X164Y992D01*
X160Y992D01*
X160Y994D01*
X156Y994D01*
X156Y996D01*
X152Y996D01*
X152Y998D01*
X148Y998D01*
X148Y1000D01*
X144Y1000D01*
X144Y1002D01*
X140Y1002D01*
X140Y1004D01*
X136Y1004D01*
X136Y1006D01*
X130Y1006D01*
X130Y1008D01*
X126Y1008D01*
X126Y1010D01*
X122Y1010D01*
X122Y1012D01*
X118Y1012D01*
X118Y1014D01*
X114Y1014D01*
X114Y1016D01*
X110Y1016D01*
X110Y1018D01*
X106Y1018D01*
X106Y1020D01*
X102Y1020D01*
X102Y1022D01*
X98Y1022D01*
X98Y1024D01*
X94Y1024D01*
X94Y1026D01*
X90Y1026D01*
X90Y1028D01*
X84Y1028D01*
X84Y1030D01*
X80Y1030D01*
X80Y1032D01*
X78Y1032D01*
X78Y1034D01*
X74Y1034D01*
X74Y1036D01*
X72Y1036D01*
X72Y1038D01*
X70Y1038D01*
X70Y1042D01*
X68Y1042D01*
X68Y1048D01*
X66Y1048D01*
X66Y1294D01*
X68Y1294D01*
X68Y1300D01*
X70Y1300D01*
X70Y1304D01*
X72Y1304D01*
X72Y1306D01*
X74Y1306D01*
X74Y1308D01*
X76Y1308D01*
X76Y1310D01*
X78Y1310D01*
X78Y1312D01*
X82Y1312D01*
X82Y1314D01*
X84Y1314D01*
X84Y1316D01*
X86Y1316D01*
X86Y1318D01*
X88Y1318D01*
X88Y1320D01*
X90Y1320D01*
X90Y1322D01*
X94Y1322D01*
X94Y1324D01*
X96Y1324D01*
X96Y1326D01*
X98Y1326D01*
X98Y1328D01*
X100Y1328D01*
X100Y1330D01*
X104Y1330D01*
X104Y1332D01*
X106Y1332D01*
X106Y1334D01*
X108Y1334D01*
X108Y1336D01*
X110Y1336D01*
X110Y1338D01*
X112Y1338D01*
X112Y1340D01*
X116Y1340D01*
X116Y1342D01*
X118Y1342D01*
X118Y1344D01*
X120Y1344D01*
X120Y1346D01*
X122Y1346D01*
X122Y1348D01*
X126Y1348D01*
X126Y1350D01*
X132Y1350D01*
X132Y1352D01*
X228Y1352D01*
X228Y1354D01*
X232Y1354D01*
X232Y1356D01*
X234Y1356D01*
X234Y1358D01*
X236Y1358D01*
X236Y1360D01*
X238Y1360D01*
X238Y1362D01*
X240Y1362D01*
X240Y1364D01*
X242Y1364D01*
X242Y1366D01*
X244Y1366D01*
X244Y1368D01*
X246Y1368D01*
X246Y1370D01*
X248Y1370D01*
X248Y1372D01*
X250Y1372D01*
X250Y1374D01*
X252Y1374D01*
X252Y1376D01*
X256Y1376D01*
X256Y1378D01*
X258Y1378D01*
X258Y1380D01*
X260Y1380D01*
X260Y1382D01*
X262Y1382D01*
X262Y1402D01*
X76Y1402D01*
G37*
D02*
G36*
X42Y954D02*
X42Y896D01*
X162Y896D01*
X162Y898D01*
X158Y898D01*
X158Y900D01*
X154Y900D01*
X154Y902D01*
X152Y902D01*
X152Y904D01*
X150Y904D01*
X150Y906D01*
X148Y906D01*
X148Y908D01*
X146Y908D01*
X146Y912D01*
X144Y912D01*
X144Y916D01*
X142Y916D01*
X142Y934D01*
X144Y934D01*
X144Y940D01*
X146Y940D01*
X146Y942D01*
X148Y942D01*
X148Y944D01*
X150Y944D01*
X150Y946D01*
X152Y946D01*
X152Y948D01*
X154Y948D01*
X154Y950D01*
X156Y950D01*
X156Y952D01*
X162Y952D01*
X162Y954D01*
X42Y954D01*
G37*
D02*
G36*
X180Y898D02*
X180Y896D01*
X236Y896D01*
X236Y898D01*
X180Y898D01*
G37*
D02*
G36*
X42Y896D02*
X42Y894D01*
X236Y894D01*
X236Y896D01*
X42Y896D01*
G37*
D02*
G36*
X42Y896D02*
X42Y894D01*
X236Y894D01*
X236Y896D01*
X42Y896D01*
G37*
D02*
G36*
X42Y894D02*
X42Y888D01*
X144Y888D01*
X144Y876D01*
X178Y876D01*
X178Y874D01*
X184Y874D01*
X184Y872D01*
X188Y872D01*
X188Y870D01*
X190Y870D01*
X190Y868D01*
X192Y868D01*
X192Y866D01*
X194Y866D01*
X194Y864D01*
X196Y864D01*
X196Y860D01*
X198Y860D01*
X198Y856D01*
X200Y856D01*
X200Y838D01*
X198Y838D01*
X198Y832D01*
X196Y832D01*
X196Y830D01*
X236Y830D01*
X236Y894D01*
X42Y894D01*
G37*
D02*
G36*
X42Y888D02*
X42Y732D01*
X66Y732D01*
X66Y888D01*
X42Y888D01*
G37*
D02*
G36*
X144Y876D02*
X144Y874D01*
X164Y874D01*
X164Y876D01*
X144Y876D01*
G37*
D02*
G36*
X194Y830D02*
X194Y828D01*
X390Y828D01*
X390Y830D01*
X194Y830D01*
G37*
D02*
G36*
X194Y830D02*
X194Y828D01*
X390Y828D01*
X390Y830D01*
X194Y830D01*
G37*
D02*
G36*
X194Y828D02*
X194Y826D01*
X192Y826D01*
X192Y824D01*
X188Y824D01*
X188Y822D01*
X186Y822D01*
X186Y820D01*
X182Y820D01*
X182Y818D01*
X174Y818D01*
X174Y816D01*
X390Y816D01*
X390Y828D01*
X194Y828D01*
G37*
D02*
G36*
X144Y818D02*
X144Y816D01*
X168Y816D01*
X168Y818D01*
X144Y818D01*
G37*
D02*
G36*
X144Y816D02*
X144Y814D01*
X390Y814D01*
X390Y816D01*
X144Y816D01*
G37*
D02*
G36*
X144Y816D02*
X144Y814D01*
X390Y814D01*
X390Y816D01*
X144Y816D01*
G37*
D02*
G36*
X144Y814D02*
X144Y808D01*
X344Y808D01*
X344Y738D01*
X390Y738D01*
X390Y814D01*
X144Y814D01*
G37*
D02*
G36*
X144Y808D02*
X144Y738D01*
X238Y738D01*
X238Y740D01*
X236Y740D01*
X236Y806D01*
X238Y806D01*
X238Y808D01*
X144Y808D01*
G37*
D02*
G36*
X144Y738D02*
X144Y736D01*
X390Y736D01*
X390Y738D01*
X144Y738D01*
G37*
D02*
G36*
X144Y738D02*
X144Y736D01*
X390Y736D01*
X390Y738D01*
X144Y738D01*
G37*
D02*
G36*
X144Y736D02*
X144Y732D01*
X390Y732D01*
X390Y736D01*
X144Y736D01*
G37*
D02*
G36*
X42Y732D02*
X42Y730D01*
X390Y730D01*
X390Y732D01*
X42Y732D01*
G37*
D02*
G36*
X42Y732D02*
X42Y730D01*
X390Y730D01*
X390Y732D01*
X42Y732D01*
G37*
D02*
G36*
X42Y730D02*
X42Y718D01*
X180Y718D01*
X180Y716D01*
X184Y716D01*
X184Y714D01*
X188Y714D01*
X188Y712D01*
X190Y712D01*
X190Y710D01*
X192Y710D01*
X192Y708D01*
X194Y708D01*
X194Y706D01*
X196Y706D01*
X196Y702D01*
X198Y702D01*
X198Y698D01*
X200Y698D01*
X200Y686D01*
X314Y686D01*
X314Y602D01*
X300Y602D01*
X300Y572D01*
X318Y572D01*
X318Y508D01*
X370Y508D01*
X370Y582D01*
X470Y582D01*
X470Y618D01*
X370Y618D01*
X370Y692D01*
X390Y692D01*
X390Y730D01*
X42Y730D01*
G37*
D02*
G36*
X42Y718D02*
X42Y416D01*
X102Y416D01*
X102Y570D01*
X118Y570D01*
X118Y594D01*
X116Y594D01*
X116Y598D01*
X114Y598D01*
X114Y602D01*
X112Y602D01*
X112Y622D01*
X114Y622D01*
X114Y626D01*
X116Y626D01*
X116Y630D01*
X118Y630D01*
X118Y632D01*
X120Y632D01*
X120Y634D01*
X122Y634D01*
X122Y636D01*
X124Y636D01*
X124Y638D01*
X128Y638D01*
X128Y640D01*
X134Y640D01*
X134Y642D01*
X150Y642D01*
X150Y664D01*
X148Y664D01*
X148Y672D01*
X146Y672D01*
X146Y674D01*
X144Y674D01*
X144Y680D01*
X142Y680D01*
X142Y698D01*
X144Y698D01*
X144Y702D01*
X146Y702D01*
X146Y706D01*
X148Y706D01*
X148Y708D01*
X150Y708D01*
X150Y710D01*
X152Y710D01*
X152Y712D01*
X154Y712D01*
X154Y714D01*
X158Y714D01*
X158Y716D01*
X162Y716D01*
X162Y718D01*
X42Y718D01*
G37*
D02*
G36*
X454Y532D02*
X454Y508D01*
X504Y508D01*
X504Y528D01*
X480Y528D01*
X480Y530D01*
X474Y530D01*
X474Y532D01*
X454Y532D01*
G37*
D02*
G36*
X318Y508D02*
X318Y506D01*
X504Y506D01*
X504Y508D01*
X318Y508D01*
G37*
D02*
G36*
X318Y508D02*
X318Y506D01*
X504Y506D01*
X504Y508D01*
X318Y508D01*
G37*
D02*
G36*
X318Y506D02*
X318Y462D01*
X320Y462D01*
X320Y460D01*
X328Y460D01*
X328Y458D01*
X336Y458D01*
X336Y456D01*
X344Y456D01*
X344Y454D01*
X460Y454D01*
X460Y456D01*
X468Y456D01*
X468Y458D01*
X476Y458D01*
X476Y460D01*
X482Y460D01*
X482Y462D01*
X486Y462D01*
X486Y492D01*
X504Y492D01*
X504Y506D01*
X318Y506D01*
G37*
D02*
G36*
X180Y432D02*
X180Y416D01*
X240Y416D01*
X240Y418D01*
X238Y418D01*
X238Y432D01*
X180Y432D01*
G37*
D02*
G36*
X42Y416D02*
X42Y414D01*
X322Y414D01*
X322Y416D01*
X42Y416D01*
G37*
D02*
G36*
X42Y416D02*
X42Y414D01*
X322Y414D01*
X322Y416D01*
X42Y416D01*
G37*
D02*
G36*
X42Y414D02*
X42Y404D01*
X386Y404D01*
X386Y406D01*
X364Y406D01*
X364Y408D01*
X350Y408D01*
X350Y410D01*
X340Y410D01*
X340Y412D01*
X330Y412D01*
X330Y414D01*
X42Y414D01*
G37*
D02*
G36*
X464Y412D02*
X464Y410D01*
X454Y410D01*
X454Y408D01*
X442Y408D01*
X442Y406D01*
X420Y406D01*
X420Y404D01*
X486Y404D01*
X486Y412D01*
X464Y412D01*
G37*
D02*
G36*
X42Y404D02*
X42Y402D01*
X486Y402D01*
X486Y404D01*
X42Y404D01*
G37*
D02*
G36*
X42Y404D02*
X42Y402D01*
X486Y402D01*
X486Y404D01*
X42Y404D01*
G37*
D02*
G36*
X42Y402D02*
X42Y336D01*
X486Y336D01*
X486Y402D01*
X42Y402D01*
G37*
D02*
G36*
X564Y352D02*
X564Y344D01*
X676Y344D01*
X676Y346D01*
X670Y346D01*
X670Y348D01*
X666Y348D01*
X666Y350D01*
X664Y350D01*
X664Y352D01*
X564Y352D01*
G37*
D02*
G36*
X696Y348D02*
X696Y346D01*
X688Y346D01*
X688Y344D01*
X716Y344D01*
X716Y348D01*
X696Y348D01*
G37*
D02*
G36*
X564Y344D02*
X564Y342D01*
X716Y342D01*
X716Y344D01*
X564Y344D01*
G37*
D02*
G36*
X564Y344D02*
X564Y342D01*
X716Y342D01*
X716Y344D01*
X564Y344D01*
G37*
D02*
G36*
X564Y342D02*
X564Y338D01*
X716Y338D01*
X716Y342D01*
X564Y342D01*
G37*
D02*
G36*
X794Y340D02*
X794Y338D01*
X814Y338D01*
X814Y340D01*
X794Y340D01*
G37*
D02*
G36*
X564Y338D02*
X564Y336D01*
X814Y336D01*
X814Y338D01*
X564Y338D01*
G37*
D02*
G36*
X564Y338D02*
X564Y336D01*
X814Y336D01*
X814Y338D01*
X564Y338D01*
G37*
D02*
G36*
X42Y336D02*
X42Y334D01*
X814Y334D01*
X814Y336D01*
X42Y336D01*
G37*
D02*
G36*
X42Y336D02*
X42Y334D01*
X814Y334D01*
X814Y336D01*
X42Y336D01*
G37*
D02*
G36*
X42Y334D02*
X42Y314D01*
X814Y314D01*
X814Y334D01*
X42Y334D01*
G37*
D02*
G36*
X168Y642D02*
X168Y620D01*
X170Y620D01*
X170Y604D01*
X168Y604D01*
X168Y598D01*
X166Y598D01*
X166Y596D01*
X164Y596D01*
X164Y592D01*
X162Y592D01*
X162Y570D01*
X180Y570D01*
X180Y476D01*
X238Y476D01*
X238Y572D01*
X256Y572D01*
X256Y602D01*
X244Y602D01*
X244Y642D01*
X168Y642D01*
G37*
D02*
G36*
X588Y904D02*
X588Y832D01*
X590Y832D01*
X590Y828D01*
X592Y828D01*
X592Y824D01*
X594Y824D01*
X594Y822D01*
X596Y822D01*
X596Y818D01*
X598Y818D01*
X598Y814D01*
X600Y814D01*
X600Y810D01*
X602Y810D01*
X602Y806D01*
X604Y806D01*
X604Y804D01*
X606Y804D01*
X606Y800D01*
X608Y800D01*
X608Y794D01*
X610Y794D01*
X610Y790D01*
X612Y790D01*
X612Y786D01*
X614Y786D01*
X614Y782D01*
X616Y782D01*
X616Y776D01*
X618Y776D01*
X618Y772D01*
X620Y772D01*
X620Y766D01*
X622Y766D01*
X622Y760D01*
X624Y760D01*
X624Y756D01*
X626Y756D01*
X626Y748D01*
X628Y748D01*
X628Y742D01*
X630Y742D01*
X630Y738D01*
X650Y738D01*
X650Y860D01*
X660Y860D01*
X660Y904D01*
X588Y904D01*
G37*
D02*
G36*
X704Y904D02*
X704Y860D01*
X716Y860D01*
X716Y738D01*
X814Y738D01*
X814Y780D01*
X740Y780D01*
X740Y854D01*
X814Y854D01*
X814Y890D01*
X740Y890D01*
X740Y904D01*
X704Y904D01*
G37*
D02*
G36*
X630Y738D02*
X630Y736D01*
X814Y736D01*
X814Y738D01*
X630Y738D01*
G37*
D02*
G36*
X630Y738D02*
X630Y736D01*
X814Y736D01*
X814Y738D01*
X630Y738D01*
G37*
D02*
G36*
X632Y736D02*
X632Y728D01*
X634Y728D01*
X634Y720D01*
X636Y720D01*
X636Y710D01*
X638Y710D01*
X638Y700D01*
X640Y700D01*
X640Y688D01*
X642Y688D01*
X642Y674D01*
X644Y674D01*
X644Y650D01*
X652Y650D01*
X652Y562D01*
X684Y562D01*
X684Y560D01*
X694Y560D01*
X694Y558D01*
X698Y558D01*
X698Y556D01*
X700Y556D01*
X700Y554D01*
X704Y554D01*
X704Y550D01*
X706Y550D01*
X706Y548D01*
X708Y548D01*
X708Y544D01*
X710Y544D01*
X710Y540D01*
X712Y540D01*
X712Y522D01*
X710Y522D01*
X710Y518D01*
X708Y518D01*
X708Y514D01*
X706Y514D01*
X706Y512D01*
X704Y512D01*
X704Y510D01*
X702Y510D01*
X702Y508D01*
X700Y508D01*
X700Y506D01*
X696Y506D01*
X696Y504D01*
X690Y504D01*
X690Y502D01*
X814Y502D01*
X814Y736D01*
X632Y736D01*
G37*
D02*
G36*
X552Y586D02*
X552Y584D01*
X550Y584D01*
X550Y582D01*
X548Y582D01*
X548Y494D01*
X572Y494D01*
X572Y586D01*
X552Y586D01*
G37*
D02*
G36*
X652Y562D02*
X652Y558D01*
X672Y558D01*
X672Y560D01*
X682Y560D01*
X682Y562D01*
X652Y562D01*
G37*
D02*
G36*
X652Y504D02*
X652Y502D01*
X674Y502D01*
X674Y504D01*
X652Y504D01*
G37*
D02*
G36*
X652Y502D02*
X652Y500D01*
X814Y500D01*
X814Y502D01*
X652Y502D01*
G37*
D02*
G36*
X652Y502D02*
X652Y500D01*
X814Y500D01*
X814Y502D01*
X652Y502D01*
G37*
D02*
G36*
X652Y500D02*
X652Y494D01*
X814Y494D01*
X814Y500D01*
X652Y500D01*
G37*
D02*
G36*
X548Y494D02*
X548Y492D01*
X814Y492D01*
X814Y494D01*
X548Y494D01*
G37*
D02*
G36*
X548Y494D02*
X548Y492D01*
X814Y492D01*
X814Y494D01*
X548Y494D01*
G37*
D02*
G36*
X564Y492D02*
X564Y404D01*
X688Y404D01*
X688Y402D01*
X694Y402D01*
X694Y400D01*
X716Y400D01*
X716Y408D01*
X814Y408D01*
X814Y492D01*
X564Y492D01*
G37*
D02*
G36*
X564Y404D02*
X564Y396D01*
X664Y396D01*
X664Y398D01*
X668Y398D01*
X668Y400D01*
X670Y400D01*
X670Y402D01*
X678Y402D01*
X678Y404D01*
X564Y404D01*
G37*
D02*
G36*
X665Y764D02*
X694Y764D01*
X694Y738D01*
X665Y738D01*
X665Y764D01*
G37*
D02*
G36*
X86Y770D02*
X121Y770D01*
X121Y732D01*
X86Y732D01*
X86Y770D01*
G37*
D02*
G36*
X62Y787D02*
X102Y787D01*
X102Y754D01*
X62Y754D01*
X62Y787D01*
G37*
D02*
G36*
X104Y787D02*
X144Y787D01*
X144Y754D01*
X104Y754D01*
X104Y787D01*
G37*
D02*
G36*
X263Y774D02*
X312Y774D01*
X312Y738D01*
X263Y738D01*
X263Y774D01*
G37*
D02*
G36*
X232Y789D02*
X286Y789D01*
X286Y760D01*
X232Y760D01*
X232Y789D01*
G37*
D02*
G36*
X138Y939D02*
X162Y939D01*
X162Y914D01*
X138Y914D01*
X138Y939D01*
G37*
D02*
G36*
X762Y412D02*
X781Y412D01*
X781Y378D01*
X762Y378D01*
X762Y412D01*
G37*
D02*
G36*
X762Y376D02*
X781Y376D01*
X781Y338D01*
X762Y338D01*
X762Y376D01*
G37*
D02*
G36*
X772Y392D02*
X796Y392D01*
X796Y361D01*
X772Y361D01*
X772Y392D01*
G37*
D02*
G36*
X391Y546D02*
X428Y546D01*
X428Y508D01*
X391Y508D01*
X391Y546D01*
G37*
D02*
G36*
X761Y818D02*
X798Y818D01*
X798Y780D01*
X761Y780D01*
X761Y818D01*
G37*
D02*
G36*
X780Y835D02*
X818Y835D01*
X818Y802D01*
X780Y802D01*
X780Y835D01*
G37*
D02*
G54D23*
X530Y876D02*
X537Y876D01*
X528Y875D02*
X539Y875D01*
X527Y874D02*
X541Y874D01*
X526Y873D02*
X542Y873D01*
X525Y872D02*
X543Y872D01*
X524Y871D02*
X544Y871D01*
X524Y870D02*
X545Y870D01*
X523Y869D02*
X546Y869D01*
X523Y868D02*
X547Y868D01*
X522Y867D02*
X548Y867D01*
X522Y866D02*
X549Y866D01*
X522Y865D02*
X550Y865D01*
X522Y864D02*
X551Y864D01*
X522Y863D02*
X551Y863D01*
X523Y862D02*
X552Y862D01*
X523Y861D02*
X553Y861D01*
X523Y860D02*
X554Y860D01*
X524Y859D02*
X555Y859D01*
X524Y858D02*
X556Y858D01*
X525Y857D02*
X557Y857D01*
X526Y856D02*
X558Y856D01*
X527Y855D02*
X558Y855D01*
X528Y854D02*
X559Y854D01*
X529Y853D02*
X560Y853D01*
X530Y852D02*
X561Y852D01*
X531Y851D02*
X562Y851D01*
X532Y850D02*
X563Y850D01*
X533Y849D02*
X563Y849D01*
X534Y848D02*
X564Y848D01*
X535Y847D02*
X565Y847D01*
X536Y846D02*
X566Y846D01*
X536Y845D02*
X566Y845D01*
X537Y844D02*
X567Y844D01*
X538Y843D02*
X568Y843D01*
X539Y842D02*
X569Y842D01*
X540Y841D02*
X569Y841D01*
X541Y840D02*
X570Y840D01*
X542Y839D02*
X571Y839D01*
X542Y838D02*
X572Y838D01*
X543Y837D02*
X572Y837D01*
X544Y836D02*
X573Y836D01*
X545Y835D02*
X574Y835D01*
X546Y834D02*
X574Y834D01*
X546Y833D02*
X575Y833D01*
X547Y832D02*
X576Y832D01*
X548Y831D02*
X576Y831D01*
X549Y830D02*
X577Y830D01*
X550Y829D02*
X578Y829D01*
X550Y828D02*
X578Y828D01*
X551Y827D02*
X579Y827D01*
X552Y826D02*
X580Y826D01*
X553Y825D02*
X580Y825D01*
X553Y824D02*
X581Y824D01*
X554Y823D02*
X582Y823D01*
X555Y822D02*
X582Y822D01*
X555Y821D02*
X583Y821D01*
X556Y820D02*
X583Y820D01*
X557Y819D02*
X584Y819D01*
X557Y818D02*
X585Y818D01*
X558Y817D02*
X585Y817D01*
X559Y816D02*
X586Y816D01*
X559Y815D02*
X586Y815D01*
X560Y814D02*
X587Y814D01*
X561Y813D02*
X588Y813D01*
X561Y812D02*
X588Y812D01*
X562Y811D02*
X589Y811D01*
X563Y810D02*
X589Y810D01*
X563Y809D02*
X590Y809D01*
X564Y808D02*
X590Y808D01*
X564Y807D02*
X591Y807D01*
X565Y806D02*
X591Y806D01*
X566Y805D02*
X592Y805D01*
X566Y804D02*
X592Y804D01*
X567Y803D02*
X593Y803D01*
X567Y802D02*
X594Y802D01*
X568Y801D02*
X594Y801D01*
X569Y800D02*
X595Y800D01*
X569Y799D02*
X595Y799D01*
X570Y798D02*
X596Y798D01*
X570Y797D02*
X596Y797D01*
X571Y796D02*
X597Y796D01*
X571Y795D02*
X597Y795D01*
X572Y794D02*
X598Y794D01*
X572Y793D02*
X598Y793D01*
X573Y792D02*
X598Y792D01*
X574Y791D02*
X599Y791D01*
X574Y790D02*
X599Y790D01*
X575Y789D02*
X600Y789D01*
X575Y788D02*
X600Y788D01*
X576Y787D02*
X601Y787D01*
X576Y786D02*
X601Y786D01*
X577Y785D02*
X602Y785D01*
X577Y784D02*
X602Y784D01*
X577Y783D02*
X603Y783D01*
X578Y782D02*
X603Y782D01*
X578Y781D02*
X603Y781D01*
X579Y780D02*
X604Y780D01*
X579Y779D02*
X604Y779D01*
X580Y778D02*
X605Y778D01*
X580Y777D02*
X605Y777D01*
X581Y776D02*
X606Y776D01*
X581Y775D02*
X606Y775D01*
X582Y774D02*
X606Y774D01*
X582Y773D02*
X607Y773D01*
X583Y772D02*
X607Y772D01*
X583Y771D02*
X608Y771D01*
X583Y770D02*
X608Y770D01*
X584Y769D02*
X608Y769D01*
X584Y768D02*
X609Y768D01*
X585Y767D02*
X609Y767D01*
X585Y766D02*
X610Y766D01*
X586Y765D02*
X610Y765D01*
X586Y764D02*
X610Y764D01*
X586Y763D02*
X611Y763D01*
X587Y762D02*
X611Y762D01*
X587Y761D02*
X611Y761D01*
X587Y760D02*
X612Y760D01*
X588Y759D02*
X612Y759D01*
X588Y758D02*
X613Y758D01*
X589Y757D02*
X613Y757D01*
X589Y756D02*
X613Y756D01*
X589Y755D02*
X614Y755D01*
X590Y754D02*
X614Y754D01*
X590Y753D02*
X614Y753D01*
X590Y752D02*
X615Y752D01*
X591Y751D02*
X615Y751D01*
X591Y750D02*
X615Y750D01*
X592Y749D02*
X616Y749D01*
X592Y748D02*
X616Y748D01*
X592Y747D02*
X616Y747D01*
X593Y746D02*
X617Y746D01*
X593Y745D02*
X617Y745D01*
X593Y744D02*
X617Y744D01*
X594Y743D02*
X617Y743D01*
X594Y742D02*
X618Y742D01*
X594Y741D02*
X618Y741D01*
X595Y740D02*
X618Y740D01*
X595Y739D02*
X619Y739D01*
X595Y738D02*
X619Y738D01*
X595Y737D02*
X619Y737D01*
X596Y736D02*
X620Y736D01*
X596Y735D02*
X620Y735D01*
X596Y734D02*
X620Y734D01*
X597Y733D02*
X620Y733D01*
X597Y732D02*
X621Y732D01*
X597Y731D02*
X621Y731D01*
X598Y730D02*
X621Y730D01*
X598Y729D02*
X621Y729D01*
X598Y728D02*
X622Y728D01*
X598Y727D02*
X622Y727D01*
X599Y726D02*
X622Y726D01*
X599Y725D02*
X623Y725D01*
X599Y724D02*
X623Y724D01*
X599Y723D02*
X623Y723D01*
X600Y722D02*
X623Y722D01*
X600Y721D02*
X624Y721D01*
X600Y720D02*
X624Y720D01*
X600Y719D02*
X624Y719D01*
X601Y718D02*
X624Y718D01*
X601Y717D02*
X624Y717D01*
X601Y716D02*
X625Y716D01*
X601Y715D02*
X625Y715D01*
X602Y714D02*
X625Y714D01*
X602Y713D02*
X625Y713D01*
X602Y712D02*
X626Y712D01*
X602Y711D02*
X626Y711D01*
X603Y710D02*
X626Y710D01*
X603Y709D02*
X626Y709D01*
X603Y708D02*
X626Y708D01*
X603Y707D02*
X627Y707D01*
X603Y706D02*
X627Y706D01*
X604Y705D02*
X627Y705D01*
X604Y704D02*
X627Y704D01*
X604Y703D02*
X627Y703D01*
X604Y702D02*
X628Y702D01*
X604Y701D02*
X628Y701D01*
X605Y700D02*
X628Y700D01*
X605Y699D02*
X628Y699D01*
X605Y698D02*
X628Y698D01*
X605Y697D02*
X629Y697D01*
X605Y696D02*
X629Y696D01*
X606Y695D02*
X629Y695D01*
X606Y694D02*
X629Y694D01*
X606Y693D02*
X629Y693D01*
X606Y692D02*
X629Y692D01*
X606Y691D02*
X630Y691D01*
X606Y690D02*
X630Y690D01*
X607Y689D02*
X630Y689D01*
X607Y688D02*
X630Y688D01*
X607Y687D02*
X630Y687D01*
X607Y686D02*
X630Y686D01*
X607Y685D02*
X631Y685D01*
X607Y684D02*
X631Y684D01*
X608Y683D02*
X631Y683D01*
X608Y682D02*
X631Y682D01*
X608Y681D02*
X631Y681D01*
X608Y680D02*
X631Y680D01*
X608Y679D02*
X631Y679D01*
X608Y678D02*
X631Y678D01*
X608Y677D02*
X632Y677D01*
X609Y676D02*
X632Y676D01*
X609Y675D02*
X632Y675D01*
X609Y674D02*
X632Y674D01*
X609Y673D02*
X632Y673D01*
X609Y672D02*
X632Y672D01*
X609Y671D02*
X632Y671D01*
X609Y670D02*
X632Y670D01*
X609Y669D02*
X632Y669D01*
X609Y668D02*
X633Y668D01*
X610Y667D02*
X633Y667D01*
X610Y666D02*
X633Y666D01*
X610Y665D02*
X633Y665D01*
X610Y664D02*
X633Y664D01*
X610Y663D02*
X633Y663D01*
X610Y662D02*
X633Y662D01*
X610Y661D02*
X633Y661D01*
X610Y660D02*
X633Y660D01*
X610Y659D02*
X633Y659D01*
X610Y658D02*
X633Y658D01*
X610Y657D02*
X633Y657D01*
X611Y656D02*
X634Y656D01*
X611Y655D02*
X634Y655D01*
X611Y654D02*
X634Y654D01*
X611Y653D02*
X634Y653D01*
X611Y652D02*
X634Y652D01*
X611Y651D02*
X634Y651D01*
X611Y650D02*
X634Y650D01*
X611Y649D02*
X634Y649D01*
X611Y648D02*
X634Y648D01*
X611Y647D02*
X634Y647D01*
X611Y646D02*
X634Y646D01*
X611Y645D02*
X634Y645D01*
X611Y644D02*
X634Y644D01*
X611Y643D02*
X634Y643D01*
X611Y642D02*
X634Y642D01*
X611Y641D02*
X634Y641D01*
X611Y640D02*
X634Y640D01*
X611Y639D02*
X634Y639D01*
X611Y638D02*
X634Y638D01*
X611Y637D02*
X634Y637D01*
X611Y636D02*
X634Y636D01*
X611Y635D02*
X634Y635D01*
X611Y634D02*
X634Y634D01*
X611Y633D02*
X634Y633D01*
X611Y632D02*
X634Y632D01*
X611Y631D02*
X634Y631D01*
X611Y630D02*
X634Y630D01*
X611Y629D02*
X634Y629D01*
X611Y628D02*
X634Y628D01*
X611Y627D02*
X634Y627D01*
X611Y626D02*
X634Y626D01*
X611Y625D02*
X634Y625D01*
X608Y624D02*
X634Y624D01*
X606Y623D02*
X634Y623D01*
X604Y622D02*
X634Y622D01*
X603Y621D02*
X634Y621D01*
X602Y620D02*
X634Y620D01*
X602Y619D02*
X633Y619D01*
X601Y618D02*
X633Y618D01*
X601Y617D02*
X633Y617D01*
X600Y616D02*
X633Y616D01*
X600Y615D02*
X633Y615D01*
X600Y614D02*
X633Y614D01*
X600Y613D02*
X633Y613D01*
X600Y612D02*
X633Y612D01*
X600Y611D02*
X633Y611D01*
X600Y610D02*
X632Y610D01*
X600Y609D02*
X632Y609D01*
X601Y608D02*
X632Y608D01*
X601Y607D02*
X632Y607D01*
X601Y606D02*
X632Y606D01*
X601Y605D02*
X631Y605D01*
X602Y604D02*
X631Y604D01*
X602Y603D02*
X631Y603D01*
X603Y602D02*
X630Y602D01*
X603Y601D02*
X630Y601D01*
X603Y600D02*
X630Y600D01*
X604Y599D02*
X629Y599D01*
X604Y598D02*
X629Y598D01*
X605Y597D02*
X628Y597D01*
X605Y596D02*
X628Y596D01*
X606Y595D02*
X627Y595D01*
X607Y594D02*
X626Y594D01*
X608Y593D02*
X625Y593D01*
X610Y592D02*
X624Y592D01*
X611Y591D02*
X622Y591D01*
X614Y590D02*
X619Y590D01*
X277Y467D02*
X278Y467D01*
X523Y467D02*
X527Y467D01*
X273Y466D02*
X282Y466D01*
X520Y466D02*
X530Y466D01*
X271Y465D02*
X284Y465D01*
X518Y465D02*
X531Y465D01*
X270Y464D02*
X286Y464D01*
X515Y464D02*
X533Y464D01*
X269Y463D02*
X288Y463D01*
X513Y463D02*
X533Y463D01*
X268Y462D02*
X290Y462D01*
X511Y462D02*
X534Y462D01*
X267Y461D02*
X293Y461D01*
X509Y461D02*
X535Y461D01*
X267Y460D02*
X295Y460D01*
X506Y460D02*
X535Y460D01*
X266Y459D02*
X298Y459D01*
X504Y459D02*
X536Y459D01*
X266Y458D02*
X300Y458D01*
X501Y458D02*
X536Y458D01*
X266Y457D02*
X303Y457D01*
X499Y457D02*
X536Y457D01*
X267Y456D02*
X288Y456D01*
X290Y456D02*
X305Y456D01*
X496Y456D02*
X536Y456D01*
X267Y455D02*
X287Y455D01*
X290Y455D02*
X308Y455D01*
X493Y455D02*
X536Y455D01*
X268Y454D02*
X286Y454D01*
X290Y454D02*
X311Y454D01*
X491Y454D02*
X536Y454D01*
X268Y453D02*
X286Y453D01*
X289Y453D02*
X314Y453D01*
X488Y453D02*
X536Y453D01*
X269Y452D02*
X285Y452D01*
X289Y452D02*
X317Y452D01*
X485Y452D02*
X536Y452D01*
X270Y451D02*
X285Y451D01*
X289Y451D02*
X321Y451D01*
X481Y451D02*
X535Y451D01*
X270Y450D02*
X284Y450D01*
X289Y450D02*
X324Y450D01*
X478Y450D02*
X535Y450D01*
X271Y449D02*
X283Y449D01*
X288Y449D02*
X328Y449D01*
X475Y449D02*
X534Y449D01*
X272Y448D02*
X283Y448D01*
X287Y448D02*
X332Y448D01*
X471Y448D02*
X534Y448D01*
X272Y447D02*
X282Y447D01*
X287Y447D02*
X336Y447D01*
X467Y447D02*
X533Y447D01*
X273Y446D02*
X281Y446D01*
X286Y446D02*
X340Y446D01*
X463Y446D02*
X532Y446D01*
X274Y445D02*
X280Y445D01*
X284Y445D02*
X345Y445D01*
X458Y445D02*
X530Y445D01*
X275Y444D02*
X279Y444D01*
X282Y444D02*
X350Y444D01*
X453Y444D02*
X528Y444D01*
X276Y443D02*
X355Y443D01*
X448Y443D02*
X526Y443D01*
X277Y442D02*
X362Y442D01*
X442Y442D02*
X524Y442D01*
X280Y441D02*
X369Y441D01*
X434Y441D02*
X522Y441D01*
X282Y440D02*
X379Y440D01*
X423Y440D02*
X519Y440D01*
X284Y439D02*
X517Y439D01*
X286Y438D02*
X515Y438D01*
X289Y437D02*
X512Y437D01*
X291Y436D02*
X510Y436D01*
X294Y435D02*
X507Y435D01*
X297Y434D02*
X505Y434D01*
X300Y433D02*
X502Y433D01*
X302Y432D02*
X499Y432D01*
X305Y431D02*
X496Y431D01*
X308Y430D02*
X493Y430D01*
X312Y429D02*
X490Y429D01*
X315Y428D02*
X487Y428D01*
X318Y427D02*
X484Y427D01*
X322Y426D02*
X480Y426D01*
X326Y425D02*
X477Y425D01*
X330Y424D02*
X473Y424D01*
X334Y423D02*
X469Y423D01*
X338Y422D02*
X464Y422D01*
X343Y421D02*
X459Y421D01*
X348Y420D02*
X455Y420D01*
X354Y419D02*
X448Y419D01*
X361Y418D02*
X442Y418D01*
X369Y417D02*
X434Y417D01*
X380Y416D02*
X423Y416D01*
D02*
G04 End of Copper0*
M02*